HIERARCHY
ROOT Hips
{
 OFFSET 0.000000 0.000000 0.000000
 CHANNELS 6 Xposition Yposition Zposition Yrotation Xrotation Zrotation
 JOINT Chest
 {
  OFFSET 0.000000 9.588913 -0.003946
  CHANNELS 3 Yrotation Xrotation Zrotation
  JOINT Chest2
  {
   OFFSET 0.000000 9.541882 0.008053
   CHANNELS 3 Yrotation Xrotation Zrotation
   JOINT Chest3
   {
    OFFSET 0.000000 9.501360 0.000000
    CHANNELS 3 Yrotation Xrotation Zrotation
    JOINT Chest4
    {
     OFFSET 0.000000 9.491660 0.000000
     CHANNELS 3 Yrotation Xrotation Zrotation
     JOINT Neck
     {
      OFFSET 0.000000 14.331917 0.000000
      CHANNELS 3 Yrotation Xrotation Zrotation
      JOINT Head
      {
       OFFSET 0.000000 8.884799 0.017034
       CHANNELS 3 Yrotation Xrotation Zrotation
       End Site
       {
        OFFSET 0.000000 16.896195 0.008993
       }
      }
     }
     JOINT RightCollar
     {
      OFFSET -2.923010 9.499495 0.000000
      CHANNELS 3 Yrotation Xrotation Zrotation
      JOINT RightShoulder
      {
       OFFSET -13.795216 0.000000 0.000000
       CHANNELS 3 Yrotation Xrotation Zrotation
       JOINT RightElbow
       {
        OFFSET -30.272209 0.000000 0.000000
        CHANNELS 3 Yrotation Xrotation Zrotation
        JOINT RightWrist
        {
         OFFSET -24.478199 0.000000 0.000000
         CHANNELS 3 Yrotation Xrotation Zrotation
         End Site
         {
          OFFSET -18.090752 0.000000 0.000000
         }
        }
       }
      }
     }
     JOINT LeftCollar
     {
      OFFSET 2.923010 9.499495 0.000000
      CHANNELS 3 Yrotation Xrotation Zrotation
      JOINT LeftShoulder
      {
       OFFSET 13.795216 0.000000 0.000000
       CHANNELS 3 Yrotation Xrotation Zrotation
       JOINT LeftElbow
       {
        OFFSET 30.272209 0.000000 0.000000
        CHANNELS 3 Yrotation Xrotation Zrotation
        JOINT LeftWrist
        {
         OFFSET 24.478199 0.000000 0.000000
         CHANNELS 3 Yrotation Xrotation Zrotation
         End Site
         {
          OFFSET 18.090752 0.000000 0.000000
         }
        }
       }
      }
     }
    }
   }
  }
 }
 JOINT RightHip
 {
  OFFSET -7.826875 0.019532 0.001973
  CHANNELS 3 Yrotation Xrotation Zrotation
  JOINT RightKnee
  {
   OFFSET 0.000000 -40.546152 -0.001885
   CHANNELS 3 Yrotation Xrotation Zrotation
   JOINT RightAnkle
   {
    OFFSET 0.000000 -39.417092 -0.003189
    CHANNELS 3 Yrotation Xrotation Zrotation
    JOINT RightToe
    {
     OFFSET 0.000000 -7.579396 17.243563
     CHANNELS 3 Yrotation Xrotation Zrotation
     End Site
     {
      OFFSET 0.000000 -1.500329 6.694466
     }
    }
   }
  }
 }
 JOINT LeftHip
 {
  OFFSET 7.826875 0.019532 0.001973
  CHANNELS 3 Yrotation Xrotation Zrotation
  JOINT LeftKnee
  {
   OFFSET 0.000000 -40.546152 -0.001885
   CHANNELS 3 Yrotation Xrotation Zrotation
   JOINT LeftAnkle
   {
    OFFSET 0.000000 -39.417092 -0.003189
    CHANNELS 3 Yrotation Xrotation Zrotation
    JOINT LeftToe
    {
     OFFSET 0.000000 -7.579396 17.243563
     CHANNELS 3 Yrotation Xrotation Zrotation
     End Site
     {
      OFFSET 0.000000 -1.500329 6.694466
     }
    }
   }
  }
 }
}
MOTION
Frames: 7
Frame Time: 0.008333
0.000000 87.345680 0.000000 0.000000 -5.767889 0.000000 0.000000 11.653876 0.000000 0.000000 -5.885988 0.000000 0.000000 -0.000000 0.000000 0.000000 -0.000000 0.000000 0.000000 12.528808 0.000000 0.000000 0.711711 0.000000 0.000000 -0.000000 0.000000 0.000000 -0.000000 0.000000 2.309063 -0.000000 0.000000 -2.309063 -0.000000 -0.000000 0.000000 -0.000000 0.000000 0.000000 0.000000 0.000000 -2.309063 0.000000 0.000000 2.309063 -0.000000 0.000000 0.000000 8.520374 0.000000 0.000000 1.905768 0.000000 -0.000000 -4.658254 0.000000 0.000000 -0.000000 0.000000 0.000000 8.520374 0.000000 0.000000 1.905768 0.000000 -0.000000 -4.658254 0.000000 0.000000 -0.000000 0.000000
5.837041 89.124174 13.095445 44.701603 -7.487870 0.373049 1.519251 2.193079 0.442802 0.874050 1.254335 0.172941 1.093220 1.567495 0.219179 0.874050 1.254335 0.172941 3.102315 23.527327 -0.465480 3.464013 -0.349336 -1.213011 -0.838711 -2.042887 -3.926428 3.294025 -2.404434 83.790304 66.203004 -18.772739 45.443716 28.909149 -3.669370 -26.250079 -10.812033 -4.521667 -0.097647 -3.185461 -10.397212 -86.934448 -34.352219 16.042532 -34.350795 -11.353223 -2.639392 12.575087 -2.786100 11.416204 0.507503 0.315678 0.401905 -0.068966 1.401204 -3.725255 -1.149049 -0.015391 0.164139 -0.002236 11.297330 8.769376 2.962759 -3.333845 4.953513 1.078415 -2.092041 -6.923603 -2.141885 -0.004860 -0.154608 -0.006759
5.830710 89.123239 13.097778 44.702741 -7.501319 0.376702 1.517850 2.195338 0.444789 0.873647 1.256367 0.173023 1.092717 1.570035 0.219284 0.873647 1.256367 0.173023 3.102892 23.531112 -0.473378 3.466526 -0.344583 -1.221704 -0.832055 -2.035280 -3.927837 3.308799 -2.418490 83.779686 66.203180 -18.772998 45.440553 28.914774 -3.668506 -26.253621 -10.805634 -4.519329 -0.102332 -3.189729 -10.402046 -86.931923 -34.347752 16.031753 -34.353443 -11.352453 -2.638482 12.575823 -2.785155 11.424331 0.505538 0.317056 0.409564 -0.065752 1.399907 -3.731156 -1.154851 -0.014397 0.165549 -0.002733 11.290515 8.752825 2.961757 -3.331339 5.009398 1.081733 -2.093045 -6.945468 -2.147284 -0.004778 -0.157671 -0.005409
5.823117 89.122104 13.100289 44.707091 -7.514311 0.380494 1.515543 2.197458 0.446303 0.872623 1.257930 0.173205 1.091438 1.571988 0.219512 0.872623 1.257930 0.173205 3.104140 23.535968 -0.481153 3.469759 -0.338511 -1.230421 -0.826470 -2.027498 -3.929518 3.323046 -2.432094 83.768462 66.200867 -18.775804 45.441188 28.919309 -3.665259 -26.259690 -10.800438 -4.517020 -0.109490 -3.186097 -10.407884 -86.925654 -34.346891 16.027970 -34.365496 -11.350161 -2.638508 12.578238 -2.787856 11.431545 0.503678 0.319153 0.417699 -0.063272 1.399506 -3.737500 -1.159550 -0.013482 0.167368 -0.003987 11.284855 8.736477 2.962218 -3.330534 5.061618 1.083311 -2.095636 -6.964979 -2.153092 -0.005292 -0.159901 -0.003776
5.814564 89.120825 13.103056 44.712833 -7.526725 0.384104 1.513055 2.198735 0.447309 0.871355 1.258706 0.173165 1.089854 1.572959 0.219460 0.871355 1.258706 0.173165 3.106807 23.543036 -0.487048 3.474131 -0.329747 -1.237434 -0.824406 -2.018382 -3.929665 3.338029 -2.443600 83.755086 66.198329 -18.782646 45.442721 28.920730 -3.663128 -26.263277 -10.796683 -4.512641 -0.118420 -3.186886 -10.411953 -86.915121 -34.346687 16.021791 -34.373736 -11.348487 -2.640741 12.580224 -2.788867 11.436208 0.502782 0.316590 0.429384 -0.058742 1.397134 -3.745507 -1.165186 -0.013169 0.169282 -0.005942 11.279760 8.719178 2.963057 -3.330019 5.113359 1.084235 -2.096375 -6.984105 -2.158922 -0.005783 -0.161396 -0.002384
5.805199 89.119461 13.106313 44.719637 -7.538586 0.385904 1.509868 2.199330 0.448370 0.869590 1.258947 0.173029 1.087648 1.573262 0.219285 0.869590 1.258947 0.173029 3.111360 23.551863 -0.491230 3.480187 -0.318813 -1.243028 -0.823909 -2.009132 -3.927757 3.353630 -2.451139 83.743188 66.198160 -18.788463 45.441913 28.919729 -3.662360 -26.261835 -10.791884 -4.506522 -0.125976 -3.193904 -10.416247 -86.903624 -34.344015 16.011040 -34.376846 -11.344922 -2.642247 12.582761 -2.786948 11.439109 0.503712 0.309587 0.443285 -0.051374 1.395358 -3.753534 -1.172876 -0.012521 0.170608 -0.007575 11.273607 8.700887 2.965717 -3.329030 5.164870 1.084708 -2.095300 -7.003512 -2.163626 -0.006173 -0.162018 -0.002293
5.795531 89.118080 13.109937 44.728325 -7.550407 0.387554 1.505762 2.200157 0.449894 0.867057 1.259092 0.173052 1.084481 1.573445 0.219304 0.867057 1.259092 0.173052 3.116393 23.561687 -0.495308 3.486755 -0.306655 -1.248624 -0.821672 -2.000661 -3.927802 3.370440 -2.456825 83.736876 66.200581 -18.790666 45.435246 28.918800 -3.661772 -26.258039 -10.784922 -4.499964 -0.135137 -3.200196 -10.423071 -86.890442 -34.341647 16.001834 -34.381315 -11.340763 -2.645201 12.585788 -2.785699 11.443291 0.504522 0.303229 0.454851 -0.042853 1.392664 -3.760450 -1.182688 -0.011043 0.172056 -0.007789 11.267963 8.682603 2.969634 -3.328932 5.215616 1.083746 -2.095841 -7.022455 -2.166637 -0.006783 -0.162367 -0.003177
